Coordinates
version=1
nRows=34
nColumns=19
inDegrees=yes

Units are S.I. units (second, meters, Newtons, ...)
If the header above contains a line with 'inDegrees', this indicates whether rotational values are in degrees (yes) or radians (no).

endheader
time	pelvis_tilt	pelvis_list	pelvis_rotation	pelvis_tx	pelvis_ty	pelvis_tz	hip_flexion_r	hip_adduction_r	hip_rotation_r	knee_angle_r	knee_angle_r_beta	ankle_angle_r	hip_flexion_l	hip_adduction_l	hip_rotation_l	knee_angle_l	knee_angle_l_beta	ankle_angle_l
     11.46666667	     -4.88117059	     -1.39665460	     -0.83963706	      2.41796502	      1.04879972	      1.04591668	     28.81258279	      4.90282540	      1.31652668	     21.98595448	      0.38372729	     -4.78677597	     -9.20259852	     -1.64042235	     -0.18858048	     61.21251588	      1.06835995	    -21.18578128
     11.47333333	     -4.23126153	     -2.04384776	     -1.16882040	      2.41620333	      1.04455939	      1.04626438	     28.42181576	      5.73875482	      0.74617020	     23.99383954	      0.41877150	     -3.44533989	     -8.22875743	     -2.48744103	     -0.36664385	     65.50058052	      1.14320079	    -22.23812803
     11.48000000	     -4.13004762	     -2.55476466	     -1.34523510	      2.41419885	      1.03935869	      1.04648383	     28.65390156	      6.37552688	      0.17557721	     26.37540255	      0.46033762	     -1.69973279	     -6.49084900	     -3.18266111	     -0.19019543	     69.86883458	      1.21944121	    -23.40129668
     11.48666667	     -3.92322930	     -3.04997496	     -1.55979509	      2.41206913	      1.03402548	      1.04675367	     28.70025741	      7.03073630	     -0.21514276	     28.90159892	      0.50442806	      0.39352554	     -4.83553832	     -3.85132338	      0.01434022	     74.08522293	      1.29303107	    -24.47696835
     11.49333333	     -3.28680242	     -3.56476187	     -1.85440635	      2.40989513	      1.02909767	      1.04705278	     28.14506862	      7.77621141	     -0.32419062	     31.42658817	      0.54849744	      2.84350079	     -3.67921478	     -4.48456782	      0.20736852	     78.02875975	      1.36185877	    -25.34858851
     11.50000000	     -3.77717048	     -3.83791845	     -1.88436966	      2.40732467	      1.02290568	      1.04704846	     28.76449242	      8.19564364	     -0.44599071	     33.98140494	      0.59308740	      5.28107101	     -1.03094484	     -4.86835147	      0.85920605	     82.10425553	      1.43298959	    -25.84567840
     11.50666667	     -3.75079499	     -4.27555375	     -1.97419454	      2.40483866	      1.01754576	      1.04704682	     28.59343295	      8.84834983	     -0.37217806	     36.25681259	      0.63280076	      7.87078835	      1.00185560	     -5.43943109	      1.39844207	     85.83730970	      1.49814368	    -25.96121798
     11.51333333	     -3.83313687	     -4.57417146	     -2.05758998	      2.40219224	      1.01239030	      1.04696443	     28.40846300	      9.37882849	     -0.16049099	     38.36868506	      0.66965988	     10.44363409	      3.21772633	     -5.84726023	      1.98047721	     89.35561570	      1.55954970	    -25.58650572
     11.52000000	     -3.89571226	     -4.95396710	     -2.10317486	      2.39955488	      1.00773774	      1.04680600	     28.00215998	      9.98704474	      0.07219839	     40.14463148	      0.70065600	     12.87602653	      5.45309975	     -6.40415528	      2.55863769	     92.61993748	      1.61652286	    -24.79446938
     11.52666667	     -4.01588986	     -5.24729565	     -2.13114388	      2.39687741	      1.00363240	      1.04657732	     27.49545593	     10.49644582	      0.35881198	     41.63537897	      0.72667445	     15.12952435	      7.80730206	     -6.89758710	      3.12476744	     95.60849421	      1.66868302	    -23.56643641
     11.53333333	     -4.19574955	     -5.49119343	     -2.15296599	      2.39421757	      1.00008482	      1.04628637	     26.89301414	     10.92257634	      0.63620143	     42.82620966	      0.74745836	     17.14771804	     10.27490866	     -7.37171814	      3.65669375	     98.30609575	      1.71576505	    -22.01264601
     11.54000000	     -3.90398407	     -5.61047592	     -2.23072524	      2.39174223	      0.99788378	      1.04602308	     25.56753944	     11.21886544	      1.05284892	     43.65600426	      0.76194101	     19.00413512	     12.16987903	     -7.74209721	      3.98271078	    100.55210996	      1.75496539	    -20.15871057
     11.54666667	     -4.53350192	     -5.71094894	     -2.19581990	      2.38916011	      0.99520938	      1.04567687	     25.17309389	     11.41312211	      1.25705893	     44.27918216	      0.77281752	     20.40464384	     15.25939126	     -8.12450680	      4.49101249	    102.67200680	      1.79196457	    -18.24979468
     11.55333333	     -4.25922864	     -5.60670669	     -2.25327299	      2.38685335	      0.99443949	      1.04543113	     23.57241743	     11.42002471	      1.74212390	     44.54126540	      0.77739173	     21.71785345	     17.22186866	     -8.29444048	      4.65113854	    104.23123060	      1.81917816	    -16.28336635
     11.56000000	     -4.53911924	     -5.64081991	     -2.31558172	      2.38478398	      0.99361475	      1.04535374	     22.44113488	     11.50334607	      1.97151772	     44.51340462	      0.77690547	     22.54281372	     19.81668352	     -8.68847667	      4.84177671	    105.54513345	      1.84211009	    -14.25221289
     11.56666667	     -4.49127428	     -5.30872686	     -2.36831535	      2.38299409	      0.99404690	      1.04535789	     20.77399091	     11.21623355	      2.44782795	     44.19399244	      0.77133068	     23.29727174	     21.98141757	     -8.65576542	      4.78752268	    106.37703223	      1.85662946	    -12.52508015
     11.57333333	     -4.55532458	     -4.96129646	     -2.49168141	      2.38147140	      0.99489171	      1.04558125	     19.12114016	     10.86648587	      2.80838933	     43.66678146	      0.76212911	     23.71721366	     24.18427546	     -8.64195101	      4.58800737	    106.86822447	      1.86520238	    -10.92768066
     11.58000000	     -4.68469106	     -4.58396430	     -2.60437234	      2.38004697	      0.99608038	      1.04598673	     17.46954093	     10.50530442	      3.23443683	     42.99437818	      0.75039346	     23.90681052	     26.41284091	     -8.61072014	      4.31457898	    107.07280886	      1.86877305	     -9.45658996
     11.58666667	     -4.89565767	     -4.14311854	     -2.75413215	      2.37903045	      0.99776988	      1.04660690	     15.77274678	     10.06450203	      3.64645181	     42.07820447	      0.73440321	     23.82218086	     28.60491993	     -8.53789257	      3.88887832	    106.91588844	      1.86603428	     -8.21090920
     11.59333333	     -5.15681700	     -3.66259820	     -2.93974582	      2.37835778	      0.99986912	      1.04744932	     14.04254254	      9.56212108	      4.02576928	     40.98385761	      0.71530326	     23.47537043	     30.72330484	     -8.46157591	      3.32646749	    106.44074682	      1.85774149	     -7.16062867
     11.60000000	     -4.74517720	     -3.03153035	     -3.40932095	      2.37828118	      1.00341747	      1.04883569	     11.39376267	      8.98327652	      4.97837384	     39.58544170	      0.69089629	     22.83790968	     31.75607736	     -8.42476330	      2.22167078	    105.48240493	      1.84101527	     -6.09481875
     11.60666667	     -4.65315348	     -2.42054821	     -3.63654019	      2.37850570	      1.00695738	      1.05000935	      9.06792040	      8.29087387	      5.44795454	     38.03309805	      0.66380279	     21.82818796	     33.10548812	     -8.25873633	      1.32408849	    104.30286242	      1.82042837	     -5.23971912
     11.61333333	     -5.17237972	     -1.87567349	     -3.75720750	      2.37899580	      1.01001081	      1.05108155	      7.42839208	      7.65644463	      5.69067785	     36.45817328	      0.63631516	     20.41756493	     35.06990566	     -8.11094687	      0.54653726	    102.95188124	      1.79684930	     -4.53334002
     11.62000000	     -4.57885430	     -1.11318764	     -4.06204801	      2.38020866	      1.01491275	      1.05251422	      4.42132591	      6.69419157	      6.12161586	     34.51062051	      0.60232395	     18.71640753	     35.41919870	     -7.89103681	     -0.78733427	    101.10960958	      1.76469559	     -3.74541688
     11.62666667	     -5.36752092	     -0.57260116	     -4.16380062	      2.38140767	      1.01821573	      1.05371063	      3.07679758	      6.00591582	      6.08880943	     32.77571765	      0.57204419	     16.56931832	     37.35860751	     -7.80950891	     -1.73371606	     99.26273424	      1.73246154	     -3.09851538
     11.63333333	     -4.85022096	      0.37524928	     -4.22056459	      2.38326867	      1.02360086	      1.05483291	      0.19776748	      4.76921787	      6.10996155	     30.67215784	      0.53533014	     14.07192480	     37.50935817	     -7.21865165	     -3.09738824	     96.88522301	      1.69096614	     -2.40571682
     11.64000000	     -4.92136010	      1.04431896	     -4.23617419	      2.38517705	      1.02830061	      1.05583915	     -1.93801203	      3.84495700	      5.88500034	     28.66404866	      0.50028203	     11.10899273	     38.23617062	     -6.92013914	     -4.29295388	     94.41933207	      1.64792822	     -1.69762724
     11.64666667	     -5.21488009	      1.72162951	     -4.11908835	      2.38724400	      1.03282983	      1.05662889	     -3.73684617	      2.92074391	      5.40835779	     26.72967055	      0.46652076	      7.87040612	     39.09234082	     -6.52740590	     -5.44212325	     91.74205658	      1.60120095	     -1.06991501
     11.65333333	     -5.59521121	      2.36258208	     -3.87884329	      2.38944913	      1.03732433	      1.05715722	     -5.35026861	      2.04860059	      4.71550369	     24.86931471	      0.43405142	      4.36849597	     39.91113159	     -6.06949969	     -6.53009285	     88.84604127	      1.55065595	     -0.50036382
     11.66000000	     -5.95172622	      2.91885120	     -3.58438636	      2.39173547	      1.04184819	      1.05751549	     -6.89097408	      1.27561638	      3.87996269	     23.10168082	      0.40320039	      0.66491953	     40.55392414	     -5.63912797	     -7.60030233	     85.73667052	      1.49638719	      0.03571222
     11.66666667	     -6.62036975	      3.38444652	     -3.07316664	      2.39398794	      1.04590306	      1.05738333	     -7.93384208	      0.63883016	      2.72316536	     21.58576005	      0.37674258	     -3.05531875	     41.45563837	     -5.07533252	     -8.43053213	     82.44887094	      1.43900426	      0.42248451
     11.67333333	     -6.79912417	      3.73088553	     -2.67156585	      2.39627386	      1.05042809	      1.05733912	     -9.41356284	      0.11413958	      1.63523363	     20.14891156	      0.35166485	     -6.89514495	     41.62677264	     -4.68286718	     -9.40497863	     78.93346889	      1.37764892	      0.80730337
     11.68000000	     -7.33016471	      3.98163553	     -2.06315513	      2.39846883	      1.05433694	      1.05670115	    -10.32969146	     -0.26698477	      0.30211482	     19.04671355	      0.33242786	    -10.52384772	     42.10658155	     -4.08843429	    -10.05151816	     75.24435281	      1.31326170	      1.02775167
     11.68666667	     -7.74414320	      4.10984956	     -1.49410013	      2.40061900	      1.05812254	      1.05596670	    -11.23067696	     -0.51264135	     -0.96536333	     18.16901151	      0.31710907	    -13.91537261	     42.31173125	     -3.59046072	    -10.71260919	     71.37825281	      1.24578553	      1.17524159
